# xmcd
#
# Track frame offsets: 
#        150
#        20288
#        33459
#        53461
#        70501
#        102621
#        119321
#        137101
#        160066
#        173996
#        196939
#        219444
#        234776
#        257421
#        279129
#        303843
#        323753
#
# Disc length: 4591 seconds
#
# Revision: 0
# Processed by: cddbd v1.5.2PL0 Copyright (c) Steve Scherf et al.
# Submitted via: ExactAudioCopy v0.95b4
#
DISCID=d611ed11
DTITLE=Eric Clapton - Millenium Collection CD1
DYEAR=1900
DGENRE=Blues
TTITLE0=I Shot The Sheriff
TTITLE1=After Midnight
TTITLE2=Knockin' On Heaven's Door
TTITLE3=Wonderful Tonight
TTITLE4=Layla
TTITLE5=Cocaine
TTITLE6=Lay Down Sally
TTITLE7=Bell Bottom Blues
TTITLE8=Promises
TTITLE9=Let It Rain
TTITLE10=Let It Grow
TTITLE11=When You Got A Good Friend
TTITLE12=Little Queen Of Spades
TTITLE13=Don't Let Me Be Lonely Tonight
TTITLE14=Wonderful Tonight
TTITLE15=Riding With The King
TTITLE16=Tears In Heaven
EXTD=
EXTT0=
EXTT1=
EXTT2=
EXTT3=
EXTT4=
EXTT5=
EXTT6=
EXTT7=
EXTT8=
EXTT9=
EXTT10=
EXTT11=
EXTT12=
EXTT13=
EXTT14=
EXTT15=
EXTT16=
PLAYORDER=
